<mxfile host="app.diagrams.net" modified="2023-09-28T15:45:37.431Z" agent="Mozilla/5.0 (X11; Linux x86_64) AppleWebKit/537.36 (KHTML, like Gecko) Chrome/116.0.0.0 Safari/537.36" version="22.0.0" etag="EXDtwYlGXOIEdU06FNX_" type="github">
  <diagram name="Page-1" id="wkCDxA2lFLnHDf1P8LvT">
    <mxGraphModel>
      <root>
        <mxCell id="0" />
        <mxCell id="1" parent="0" />
      </root>
    </mxGraphModel>
  </diagram>
</mxfile>
